<?xml version="1.0" encoding="utf-8"?>
<!-- Generator: Adobe Illustrator 15.0.0, SVG Export Plug-In . SVG Version: 6.00 Build 0)  -->
<!DOCTYPE svg PUBLIC "-//W3C//DTD SVG 1.1//EN" "http://www.w3.org/Graphics/SVG/1.1/DTD/svg11.dtd">
<svg version="1.1" id="svg2" xmlns:svg="http://www.w3.org/2000/svg"
	 xmlns="http://www.w3.org/2000/svg" xmlns:xlink="http://www.w3.org/1999/xlink" x="0px" y="0px" width="580px" height="580px"
	 viewBox="0 0 580 580" enable-background="new 0 0 580 580" xml:space="preserve">
<g id="layer1">
	<g id="g2119">
		<g id="g1327">
			<path id="path1329" fill="#894C10" stroke="#EEEEEE" stroke-width="3.408" d="M66.275,1.768
				c-41.335,0-64.571,21.371-64.571,65.036v450.123c0,40.845,20.894,62.229,62.192,62.229H515.92
				c41.307,0,62.229-20.316,62.229-62.229V66.804c0-42.601-20.923-65.036-63.522-65.036C514.624,1.768,66.133,1.625,66.275,1.768z"
				/>
		</g>
		<path id="path2110" fill="#FFFFFF" d="M203.725,338.602c37.643-17.466,64.864-67.996,64.864-127.642
			c0-74.115-61.834-155.247-93.849-155.247c-32.014,0-93.85,81.132-93.85,155.247c0,59.646,27.223,110.176,64.865,127.642
			l-7.792,176.545h73.553L203.725,338.602z"/>
		<path id="path2112" fill="#FFFFFF" d="M430.231,368.602c37.642-17.466,51.389-39.928,51.389-99.574l-9.781-202.814
			c0-3.875-3.142-7.017-7.018-7.017h-4.607c-3.873,0-7.016,3.141-7.016,7.017l3.26,202.814h-20.259l-5.132-204.789
			c0-3.875-3.143-7.017-7.019-7.017h-5.995c-3.874,0-7.016,3.142-7.016,7.017l2.774,204.789h-25.137l2.775-204.789
			c0-3.875-3.143-7.017-7.018-7.017h-5.996c-3.875,0-7.016,3.142-7.016,7.017l-5.132,204.789h-19.835l3.26-202.789
			c0-3.875-3.142-7.017-7.017-7.017h-4.606c-3.875,0-7.018,3.142-7.018,7.017L320.9,269.028c0,59.646,13.715,82.108,51.355,99.574
			l-7.791,146.545h73.554L430.231,368.602z"/>
	</g>
</g>
</svg>
