<?xml version="1.0" encoding="UTF-8" standalone="no"?>
<!-- Created with Inkscape (http://www.inkscape.org/) -->
<svg
   xmlns:dc="http://purl.org/dc/elements/1.1/"
   xmlns:cc="http://creativecommons.org/ns#"
   xmlns:rdf="http://www.w3.org/1999/02/22-rdf-syntax-ns#"
   xmlns:svg="http://www.w3.org/2000/svg"
   xmlns="http://www.w3.org/2000/svg"
   xmlns:sodipodi="http://sodipodi.sourceforge.net/DTD/sodipodi-0.dtd"
   xmlns:inkscape="http://www.inkscape.org/namespaces/inkscape"
   width="867.47083"
   height="878.64777"
   id="svg2"
   sodipodi:version="0.32"
   inkscape:version="0.46"
   version="1.0"
   sodipodi:docname="gvsig-plano.svg"
   inkscape:output_extension="org.inkscape.output.svg.inkscape">
  <defs
     id="defs4">
    <inkscape:perspective
       sodipodi:type="inkscape:persp3d"
       inkscape:vp_x="0 : 526.18109 : 1"
       inkscape:vp_y="0 : 1000 : 0"
       inkscape:vp_z="744.09448 : 526.18109 : 1"
       inkscape:persp3d-origin="372.04724 : 350.78739 : 1"
       id="perspective10" />
    <inkscape:perspective
       id="perspective2390"
       inkscape:persp3d-origin="372.04724 : 350.78739 : 1"
       inkscape:vp_z="744.09448 : 526.18109 : 1"
       inkscape:vp_y="0 : 1000 : 0"
       inkscape:vp_x="0 : 526.18109 : 1"
       sodipodi:type="inkscape:persp3d" />
  </defs>
  <sodipodi:namedview
     id="base"
     pagecolor="#ffffff"
     bordercolor="#666666"
     borderopacity="1.0"
     inkscape:pageopacity="0.0"
     inkscape:pageshadow="2"
     inkscape:zoom="0.24748737"
     inkscape:cx="-592.70405"
     inkscape:cy="29.082828"
     inkscape:document-units="px"
     inkscape:current-layer="layer1"
     showgrid="false"
     inkscape:window-width="1440"
     inkscape:window-height="849"
     inkscape:window-x="0"
     inkscape:window-y="24" />
  <metadata
     id="metadata7">
    <rdf:RDF>
      <cc:Work
         rdf:about="">
        <dc:format>image/svg+xml</dc:format>
        <dc:type
           rdf:resource="http://purl.org/dc/dcmitype/StillImage" />
      </cc:Work>
    </rdf:RDF>
  </metadata>
  <g
     inkscape:label="Capa 1"
     inkscape:groupmode="layer"
     id="layer1"
     transform="translate(628.92048,223.12728)">
    <rect
       style="opacity:0.98999999000000005;fill:#ffffff;fill-opacity:1;fill-rule:nonzero;stroke:none;stroke-width:8;stroke-linecap:butt;stroke-linejoin:miter;marker:none;marker-start:none;marker-mid:none;marker-end:none;stroke-miterlimit:4;stroke-dasharray:none;stroke-dashoffset:0;stroke-opacity:1;visibility:visible;display:inline;overflow:visible;enable-background:accumulate"
       id="rect2395"
       width="210.71428"
       height="215"
       x="114.28571"
       y="272.93347"
       transform="translate(-628.92048,-223.12728)"
       rx="18.686495"
       ry="18.686495" />
    <path
       style="fill:#ffffff;fill-rule:evenodd;stroke:none;stroke-width:1px;stroke-linecap:butt;stroke-linejoin:miter;stroke-opacity:1;fill-opacity:1"
       d="M 735.64359,123.81128 L 861.91266,124.06381 L 790.44437,194.26942 L 735.64359,123.81128 z"
       id="path3167"
       transform="translate(-628.92048,-223.12728)" />
    <path
       style="fill:#ffffff;fill-rule:evenodd;stroke:none;stroke-width:1px;stroke-linecap:butt;stroke-linejoin:miter;stroke-opacity:1;fill-opacity:1"
       d="M 551.79583,838.4942 L 625.28443,808.94724 L 607.85929,848.84827 L 595.99,874.60716 L 551.79583,838.4942 z"
       id="path3169"
       transform="translate(-628.92048,-223.12728)" />
    <g
       id="g2389">
      <g
         transform="translate(-371.56249,-45.870541)"
         id="g2406">
        <path
           id="path2412"
           d="M 315.67861,684.06289 C 290.73542,663.94638 287.97813,661.5187 289.02915,660.59906 C 289.44527,660.23495 295.62652,658.03914 302.76524,655.71949 C 320.90058,649.82661 336.09151,643.68234 355.18208,634.51847 C 364.20007,630.18965 371.73757,626.64789 371.93208,626.64789 C 373.13739,626.64789 371.37732,631.17129 364.13497,646.68653 C 359.65205,656.29028 352.28881,672.45229 347.77221,682.60219 C 343.25562,692.75199 339.11275,701.20559 338.56585,701.38789 C 338.01895,701.57019 327.71969,693.77389 315.67861,684.06289 z M 351.2713,664.14789 C 358.3074,649.29789 363.73778,636.79411 363.33881,636.36172 C 362.30715,635.24365 301.12424,661.65409 301.5651,663.02719 C 302.17988,664.94196 335.70767,691.70609 337.13206,691.41909 C 337.87254,691.26999 344.2352,678.99789 351.2713,664.14789 z M 146.28574,676.63339 C 88.18437,673.68689 31.06695,658.5485 -21.71426,632.10676 C -65.92894,609.95659 -98.32096,586.28087 -135.43052,548.99017 L -157.64677,526.66547 L -157.93052,537.40668 L -158.21426,548.14789 L -161.10575,548.47797 C -162.74808,548.66544 -164.36152,548.23343 -164.84044,547.47797 C -165.3042,546.74642 -165.69053,539.11549 -165.69895,530.52033 C -165.71045,518.78476 -166.04411,514.61903 -167.03872,513.79357 C -167.86626,513.10678 -175.23585,512.59185 -186.68083,512.42113 C -202.85783,512.17982 -205.12735,511.94338 -206.10125,510.39789 C -206.90473,509.12284 -206.90486,508.17294 -206.1017,506.89789 C -205.14775,505.38344 -203.02852,505.11064 -190.35682,504.87116 C -181.50225,504.70381 -175.71426,504.20135 -175.71426,503.60002 C -175.71426,503.0531 -179.47461,497.10263 -184.07059,490.37675 C -222.53482,434.08722 -246.14978,371.10026 -255.39085,300.14789 C -258.0217,279.9484 -258.0114,219.39547 -255.37367,199.14789 C -245.35093,122.21189 -218.43792,54.85891 -173.63205,-5.42017 L -165.77673,-15.98823 L -165.4955,-28.81312 C -165.25569,-39.74859 -164.95644,-41.80035 -163.46426,-42.73994 C -162.19146,-43.5414 -161.23706,-43.54202 -159.96426,-42.74223 C -158.61635,-41.89524 -158.14675,-40.00086 -157.92045,-34.49734 C -157.75886,-30.56746 -157.28542,-27.35211 -156.86838,-27.35211 C -156.45133,-27.35211 -152.56358,-31.42296 -148.22893,-36.39845 C -133.06946,-53.79908 -107.60317,-77.01126 -86.26949,-92.87364 C -26.28235,-137.47626 40.3412,-164.29699 116.28574,-174.41655 C 136.25846,-177.0779 180.49619,-178.1254 201.85433,-176.44271 C 286.64969,-169.76217 366.22238,-139.02863 432.28574,-87.44268 C 444.47794,-77.92233 464.95769,-59.91181 466.57818,-57.28484 C 467.3001,-56.11454 466.65173,-54.4682 464.01828,-50.78484 C 458.18623,-42.62764 444.60138,-20.04847 433.11045,0.58655 L 422.28574,20.02521 L 422.28574,42.29762 L 422.28574,64.57002 L 431.03574,64.85896 L 439.78574,65.14789 L 440.11582,68.03938 C 440.56301,71.95685 439.11946,72.61463 430.03574,72.63258 L 422.28574,72.64789 L 422.28574,128.31456 C 422.28574,158.93122 422.55992,183.70704 422.89504,183.37193 C 423.23015,183.03681 424.75065,179.20166 426.27392,174.84937 C 436.68571,145.10081 458.73651,109.70043 491.18077,70.64789 C 501.23059,58.55111 524.95826,32.09208 529.98462,27.37721 C 533.55484,24.02824 533.51787,23.99714 541.008,36.64789 C 584.77584,110.57113 601.24604,174.7215 597.36864,256.16782 C 594.97234,306.5019 588.28354,345.70599 575.13455,386.48486 C 550.46028,463.00719 504.83249,529.62274 443.28574,578.98116 C 420.98973,596.8618 377.25419,625.01634 375.10805,622.8702 C 373.11573,620.87788 391.51,568.9561 405.90784,535.93115 C 410.51569,525.36194 414.28574,515.79944 414.28574,514.68115 C 414.28574,512.67807 413.79817,512.64789 381.44177,512.64789 L 348.59781,512.64789 L 301.37194,572.166 C 275.39771,604.90096 254.28999,632.30461 254.4659,633.06299 C 254.64181,633.82138 261.89222,640.18425 270.57791,647.20271 C 280.84617,655.49997 286.02871,660.30492 285.39416,660.93947 C 283.92668,662.40695 258.7767,668.27612 241.78574,671.11619 C 211.67978,676.14849 176.64071,678.17279 146.28574,676.63339 z M 414.04831,467.81037 C 414.21384,444.90093 413.95599,431.59757 413.35054,431.81037 C 412.07996,432.25693 356.28574,502.62731 356.28574,503.78326 C 356.28574,504.29572 368.57959,504.5651 385.03574,504.41323 L 413.78574,504.14789 L 414.04831,467.81037 z M 427.87674,490.89789 C 446.30917,456.96465 466.22823,429.46628 488.19374,407.62995 C 501.67026,394.23269 511.65844,386.26032 525.204,378.08907 C 529.8633,375.27839 533.8106,372.5668 533.97577,372.06331 C 534.14094,371.55983 529.16572,368.56082 522.91973,365.39886 C 473.0128,340.134 439.32021,300.65239 425.91288,251.72443 C 424.5048,246.58584 423.11266,242.14147 422.81923,241.84805 C 422.52581,241.55463 422.28574,269.9869 422.28574,305.03088 C 422.28574,361.94138 422.45979,369.08905 423.91519,371.94755 C 424.81139,373.70774 428.41139,380.1617 431.91519,386.2897 C 435.41899,392.4177 438.28574,397.88342 438.28574,398.43576 C 438.28574,398.98809 434.68574,404.03355 430.28574,409.64789 L 422.28574,419.85578 L 422.28574,459.75183 C 422.28574,481.69466 422.4743,499.64789 422.70476,499.64789 C 422.93522,499.64789 425.26261,495.71039 427.87674,490.89789 z M 414.28574,212.14789 L 414.28574,72.64789 L 406.40818,72.64789 C 401.30977,72.64789 398.17544,73.08888 397.52382,73.89789 C 396.97008,74.58539 393.80919,82.34789 390.49961,91.14789 C 369.38159,147.29973 362.31525,192.51548 368.77662,230.14789 C 372.5472,252.10853 380.44787,277.84241 391.86936,305.36496 C 398.78988,322.04146 412.76853,351.64789 413.72181,351.64789 C 414.03197,351.64789 414.28574,288.87289 414.28574,212.14789 z M -78.74743,284.56158 C -75.96154,283.96412 -71.55807,282.01149 -68.96196,280.22242 C -65.0117,277.50017 -63.90668,275.9965 -62.18759,271.00421 C -61.0578,267.72326 -58.91411,262.95825 -57.42384,260.4153 L -54.71426,255.79175 L -54.71426,192.21982 C -54.71426,129.38015 -54.73797,128.62418 -56.77265,126.5895 C -58.76565,124.5965 -59.6948,124.54091 -86.02265,124.8395 C -110.33353,125.11522 -113.58506,125.34648 -116.71426,127.02242 C -123.87366,130.85685 -128.5695,135.60841 -131.91447,142.40302 L -135.21426,149.10584 L -135.21426,180.62686 L -135.21426,212.14789 L -132.55385,217.82304 C -128.98327,225.43976 -122.81162,231.91614 -116.44131,234.73116 C -111.73239,236.81202 -109.23178,237.09584 -91.21426,237.59444 L -71.21426,238.14789 L -70.90007,246.14789 C -70.50742,256.14587 -71.69514,260.2669 -76.24015,264.67627 L -79.81856,268.14789 L -101.16357,268.64789 C -119.9235,269.08733 -122.75053,269.36708 -124.50629,270.95773 C -128.41355,274.49756 -127.6977,282.90286 -123.33906,284.66304 C -120.23637,285.91603 -84.68581,285.83514 -78.74743,284.56158 z M -110.69199,218.41975 C -112.5281,217.17023 -114.97174,214.87739 -116.12231,213.32456 C -118.13514,210.60801 -118.21426,209.3722 -118.21426,180.64789 C -118.21426,152.05593 -118.12714,150.67787 -116.15247,148.03301 C -111.16182,141.34858 -110.39643,141.14789 -89.8935,141.14789 L -71.21426,141.14789 L -71.21426,180.64789 L -71.21426,220.14789 L -89.28394,220.41975 C -106.65643,220.68112 -107.48242,220.60396 -110.69199,218.41975 z M 23.93009,234.13414 C 26.44822,231.37202 58.28574,136.83537 58.28574,132.12029 C 58.28574,127.18521 55.83142,124.64789 51.05778,124.64789 C 48.67453,124.64789 46.19278,125.32703 45.15974,126.26191 C 44.14377,127.18136 38.15687,143.53429 31.24773,164.26191 C 24.57704,184.2742 18.74414,200.64789 18.28574,200.64789 C 17.82734,200.64789 11.99444,184.2742 5.32375,164.26191 C -1.58539,143.53429 -7.57229,127.18136 -8.58826,126.26191 C -10.57778,124.46143 -15.87418,124.12792 -18.67482,125.62678 C -19.68081,126.16517 -20.95793,127.90813 -21.51287,129.50001 C -22.38976,132.01547 -20.37689,138.88868 -6.13624,182.00556 C 2.87584,209.29172 10.81467,232.52198 11.50561,233.62835 C 13.0096,236.03662 17.01886,237.65859 19.78574,236.97813 C 20.88574,236.7076 22.7507,235.42781 23.93009,234.13414 z M 413.85052,63.33967 C 414.12662,62.62015 414.225,56.65765 414.06913,50.08967 L 413.78574,38.14789 L 408.03574,49.9782 C 404.87324,56.48486 402.28574,62.44736 402.28574,63.2282 C 402.28574,65.15188 413.11505,65.25627 413.85052,63.33967 z M 523.30443,10.28274 C 511.96995,-6.3768 497.22392,-24.8404 481.91613,-41.53981 C 475.51942,-48.51805 470.28574,-54.48055 470.28574,-54.78981 C 470.28574,-55.09908 501.81874,-55.35211 540.35906,-55.35211 C 597.23034,-55.35211 610.37144,-55.10803 610.10904,-54.0566 C 609.93124,-53.34407 602.06844,-45.47529 592.63624,-36.57042 C 583.20395,-27.66555 565.81496,-10.4392 553.994,1.71036 L 532.50134,23.80047 L 523.30443,10.28274 z M 565.74711,-19.31346 C 582.7692,-36.3422 596.49144,-50.45475 596.24104,-50.67468 C 595.27684,-51.52148 486.71856,-52.25944 485.39082,-51.42822 C 484.31934,-50.75743 489.16755,-43.8651 506.29983,-21.70353 C 530.91604,10.13895 532.15645,11.64789 533.7161,11.64789 C 534.31106,11.64789 548.72501,-2.28472 565.74711,-19.31346 z"
           style="fill:#eebe0e" />
        <path
           id="path2410"
           d="M 374.83408,622.7261 C 373.31022,620.26045 392.44881,566.80273 405.90784,535.93115 C 410.51569,525.36194 414.28574,515.87293 414.28574,514.84445 C 414.28574,513.05246 412.25299,512.94687 365.53574,512.31231 C 338.72324,511.94811 210.2748,511.64963 80.09476,511.64901 C -108.16087,511.64812 -156.76178,511.90368 -157.40524,512.89789 C -157.8502,513.58539 -158.21426,521.79789 -158.21426,531.14789 L -158.21426,548.14789 L -161.10575,548.47797 C -162.73596,548.66406 -164.38333,548.22786 -164.88234,547.47797 C -165.36913,546.74642 -165.67728,538.54936 -165.5671,529.26226 L -165.36678,512.37663 L -185.1785,512.26226 C -202.88309,512.16005 -205.10796,511.96176 -206.09713,510.39789 C -206.90697,509.11753 -206.90541,508.17825 -206.09131,506.89789 C -205.09517,505.33125 -202.97944,505.14789 -185.89846,505.14789 C -173.88093,505.14789 -166.42808,504.75838 -165.76401,504.0956 C -165.02986,503.36287 -164.7863,437.61663 -164.96197,287.5956 L -165.21426,72.14789 L -178.71426,71.64789 L -192.21426,71.14789 L -192.21426,68.64789 L -192.21426,66.14789 L -179.77783,65.86561 C -171.92431,65.68736 -166.80507,65.13822 -165.88597,64.37544 C -164.63667,63.33861 -164.48604,55.74631 -164.8224,10.76849 C -165.18932,-38.29505 -165.10286,-41.70093 -163.46426,-42.73622 C -162.18747,-43.5429 -161.24105,-43.54338 -159.96426,-42.73797 C -158.3266,-41.70493 -158.23722,-38.29847 -158.57199,10.32776 C -158.90142,58.18 -158.79531,62.42398 -157.23034,63.98895 C -155.63789,65.58141 -137.67196,65.67132 128.32748,65.41811 C 343.99962,65.2128 412.46796,64.86583 413.36003,63.97369 C 414.21773,63.11592 414.67517,47.82244 415.05748,7.22369 L 415.58082,-48.35211 L 418.43328,-48.35211 L 421.28574,-48.35211 L 421.28742,-24.10211 C 421.28834,-10.76461 421.58573,14.64393 421.94828,32.3613 L 422.60747,64.57472 L 431.1966,64.8613 L 439.78574,65.14789 L 440.11582,68.03938 C 440.56301,71.95685 439.11946,72.61463 430.03574,72.63258 L 422.28574,72.64789 L 422.28574,128.31456 C 422.28574,158.93122 422.55992,183.70704 422.89504,183.37193 C 423.23015,183.03681 424.75065,179.20166 426.27392,174.84937 C 436.68571,145.10081 458.73651,109.70043 491.18077,70.64789 C 501.23059,58.55111 524.95826,32.09208 529.98462,27.37721 C 533.55484,24.02824 533.51787,23.99714 541.008,36.64789 C 584.77584,110.57113 601.24604,174.7215 597.36864,256.16782 C 594.97234,306.5019 588.28354,345.70599 575.13455,386.48486 C 550.46028,463.00719 504.83249,529.62274 443.28574,578.98116 C 428.70895,590.67125 401.72909,609.07591 386.00036,618.05913 C 375.25742,624.19478 375.64234,624.0339 374.83408,622.7261 z M 413.45824,503.87551 C 414.48165,502.85201 414.6791,460.61235 414.46774,287.91847 C 414.32323,169.84191 413.96071,72.98948 413.66215,72.69085 C 413.36358,72.39222 285.07982,72.02338 128.58713,71.87121 C -84.60272,71.6639 -156.29221,71.88265 -157.32965,72.74365 C -158.50125,73.716 -158.71426,106.86204 -158.71426,288.19891 C -158.71426,486.38426 -158.58962,502.62968 -157.05727,504.16203 C -155.52081,505.69849 -134.75607,505.79461 128.39286,505.48346 C 356.40221,505.21385 412.43606,504.89779 413.45824,503.87551 z M -13.893,429.15061 C -28.60614,426.67458 -46.2175,419.24532 -57.13893,410.90754 C -64.47149,405.30963 -65.55283,399.39556 -60.21905,394.06177 C -56.23745,390.08017 -52.83102,390.84917 -35.22871,399.70334 C -17.04287,408.85102 -8.11783,411.21356 5.32405,410.43806 C 25.16755,409.29321 37.36228,392.18251 31.84958,373.21948 C 28.92361,363.15452 25.20737,360.43162 -10.51685,342.17749 C -43.46133,325.34373 -50.3914,320.87023 -55.52046,313.12677 C -61.66114,303.85602 -63.09542,298.49795 -63.14384,284.64789 C -63.18603,272.58031 -63.07501,271.90931 -59.93481,265.25124 C -57.6393,260.38414 -54.70043,256.41037 -49.94817,251.74789 C -38.72817,240.73985 -28.50635,236.64789 -12.22793,236.64789 C 5.76901,236.64789 23.05936,239.98083 34.17717,245.59308 C 43.37941,250.23836 45.82461,256.47716 40.78869,262.46202 C 37.02078,266.93992 34.72528,267.03232 23.07545,263.17496 C 5.22043,257.26303 -14.46304,254.9943 -23.75263,257.77753 C -29.59082,259.5267 -36.66459,265.52295 -40.11548,271.64789 C -42.9104,276.60857 -43.21308,277.98139 -43.20226,285.64789 C -43.18796,295.78051 -41.25024,300.28233 -34.32327,306.2761 C -31.69575,308.54965 -16.95608,316.72737 1.38394,326.08684 C 28.32666,339.83653 33.48752,342.84055 38.95772,347.95765 C 57.96701,365.73991 57.9088,397.06186 38.83101,416.13965 C 25.81372,429.15695 9.72987,433.12604 -13.893,429.15061 z M 139.5915,428.23447 L 136.78574,425.82106 L 136.78574,333.64789 L 136.78574,241.47472 L 139.5915,239.06131 C 143.70894,235.51964 149.52664,235.73495 153.36266,239.57097 L 156.28574,242.49404 L 156.28574,333.64789 L 156.28574,424.80174 L 153.36266,427.72481 C 149.52664,431.56083 143.70894,431.77614 139.5915,428.23447 z M 277.55544,429.59383 C 262.50414,426.62319 247.80576,413.67739 242.16707,398.42505 C 239.86191,392.18974 239.84422,391.78457 239.51229,337.64789 C 239.14819,278.2635 239.40759,274.38303 244.44807,263.81296 C 248.05756,256.24374 257.53057,246.31264 264.8606,242.41334 C 274.89925,237.07317 278.6768,236.64789 316.07276,236.64789 L 350.43959,236.64789 L 353.36266,239.57097 C 357.19788,243.40618 357.41382,249.22409 353.8738,253.34213 L 351.46187,256.14789 L 315.6238,256.64789 C 284.03267,257.08864 279.36638,257.3569 276.24694,258.91161 C 270.39872,261.82633 265.88679,266.13295 262.75212,271.79234 L 259.78574,277.14789 L 259.78574,333.64789 C 259.78574,389.9643 259.7929,390.16127 261.98794,394.26436 C 265.37195,400.58993 268.62796,403.96726 274.45302,407.19394 L 279.78574,410.14789 L 307.78574,410.14789 L 335.78574,410.14789 L 335.78574,372.14789 L 335.78574,334.14789 L 323.94541,333.64789 C 312.35471,333.15843 312.05196,333.08605 309.58598,330.21491 C 307.47554,327.75773 307.14787,326.56343 307.5661,322.8529 C 307.86713,320.18217 308.91409,317.5751 310.20331,316.28588 C 312.24069,314.2485 313.2563,314.14789 331.78574,314.14789 C 350.68565,314.14789 351.29397,314.21166 353.50796,316.42508 L 355.78574,318.70228 L 356.06142,371.72633 L 356.3371,424.75038 L 353.38834,427.69913 L 350.43959,430.64789 L 316.11266,430.53832 C 297.23286,430.47806 279.88211,430.05304 277.55544,429.59383 z M 427.87674,490.89789 C 446.30917,456.96465 466.22823,429.46628 488.19374,407.62995 C 501.67026,394.23269 511.65844,386.26032 525.204,378.08907 C 529.8633,375.27839 533.8106,372.5668 533.97577,372.06331 C 534.14094,371.55983 529.16572,368.56082 522.91973,365.39886 C 473.0128,340.134 439.32021,300.65239 425.91288,251.72443 C 424.5048,246.58584 423.17561,242.20443 422.95914,241.98796 C 422.25305,241.28187 421.58612,399.58638 422.08172,450.25497 C 422.34744,477.42107 422.69061,499.64789 422.84431,499.64789 C 422.99802,499.64789 425.26261,495.71039 427.87674,490.89789 z"
           style="fill:#3e83c3" />
        <path
           id="path2408"
           d="M 415.28574,539.14789 C 415.28574,517.86861 415.00298,511.62496 414.03574,511.54653 C 413.34824,511.49079 284.76074,511.53109 128.28574,511.63611 C -62.09724,511.76388 -156.61993,512.16222 -157.44055,512.84023 C -158.29772,513.54845 -158.74922,518.86429 -158.94055,530.50065 C -159.2064,546.66962 -159.27597,547.15669 -161.36233,547.45408 C -163.47597,547.75537 -163.51604,547.48771 -163.86233,530.75336 C -164.11497,518.5444 -164.58043,513.3799 -165.5122,512.44717 C -166.46081,511.49759 -171.92696,511.05942 -185.82144,510.81919 C -204.67605,510.49321 -204.83019,510.4726 -204.5235,508.31919 C -204.22037,506.19078 -203.84591,506.14252 -185.56871,505.87621 C -171.51579,505.67145 -166.65056,505.27606 -165.81642,504.27099 C -165.01326,503.30324 -164.77889,443.85497 -164.96197,287.54267 L -165.21426,72.14789 L -178.71426,71.64789 L -192.21426,71.14789 L -192.21426,68.64789 L -192.21426,66.14789 L -179.77783,65.86561 C -172.70372,65.70505 -166.77502,65.11328 -166.02783,64.49317 C -164.9888,63.63085 -164.71362,56.06133 -164.7112,28.27545 C -164.70952,8.95529 -164.41286,-14.63652 -164.05196,-24.15079 C -163.41461,-40.95307 -163.33579,-41.44091 -161.30502,-41.15079 C -159.22181,-40.85319 -159.21245,-40.66331 -158.71426,11.4348 C -158.28377,56.45269 -158.00573,63.85347 -156.71426,64.66948 C -155.77856,65.26071 -47.90351,65.62303 130.03574,65.63258 L 415.28574,65.64789 L 415.28574,8.64789 L 415.28574,-48.35211 L 418.44847,-48.35211 L 421.6112,-48.35211 L 420.95356,7.39789 C 420.59187,38.06039 420.64547,63.6906 421.07268,64.35392 C 421.55108,65.09671 425.10207,65.67287 430.31758,65.85392 C 438.23429,66.12875 438.80655,66.29441 439.10529,68.39789 C 439.41382,70.57031 439.14908,70.64789 431.42672,70.64789 C 425.69415,70.64789 423.00885,71.06764 421.94675,72.12974 C 420.6458,73.43069 420.48448,99.86525 420.62532,288.66626 C 420.76702,478.62095 420.96081,503.83159 422.28574,504.66909 C 423.11303,505.19204 433.76425,505.62413 446.03574,505.63258 L 468.28574,505.64789 L 468.28574,508.62946 L 468.28574,511.61103 L 445.03574,511.87946 L 421.78574,512.14789 L 421.51967,539.39789 L 421.2536,566.64789 L 418.26967,566.64789 L 415.28574,566.64789 L 415.28574,539.14789 z M 415.28574,288.64789 C 415.28574,115.7281 415.03182,71.64273 414.03574,71.6225 C 413.34824,71.60854 284.79334,71.61976 128.35817,71.64742 C -76.57161,71.68367 -156.43901,72.00449 -157.39183,72.79526 C -158.48088,73.69909 -158.71426,111.71349 -158.71426,288.19891 C -158.71426,481.68932 -158.56163,502.65767 -157.14283,504.07646 C -155.7216,505.49769 -128.29002,505.64789 129.85717,505.64789 L 415.28574,505.64789 L 415.28574,288.64789 z M -13.893,429.15061 C -28.60614,426.67458 -46.2175,419.24532 -57.13893,410.90754 C -64.47149,405.30963 -65.55283,399.39556 -60.21905,394.06177 C -56.23745,390.08017 -52.83102,390.84917 -35.22871,399.70334 C -17.04287,408.85102 -8.11783,411.21356 5.32405,410.43806 C 25.16755,409.29321 37.36228,392.18251 31.84958,373.21948 C 28.92361,363.15452 25.20737,360.43162 -10.51685,342.17749 C -27.70702,333.39377 -44.15453,324.33688 -47.06688,322.05108 C -60.69276,311.35659 -66.95913,291.04013 -61.84203,274.14789 C -54.30998,249.28355 -37.59246,236.64789 -12.22793,236.64789 C 5.76901,236.64789 23.05936,239.98083 34.17717,245.59308 C 43.37941,250.23836 45.82461,256.47716 40.78869,262.46202 C 37.02078,266.93992 34.72528,267.03232 23.07545,263.17496 C 5.22043,257.26303 -14.46304,254.9943 -23.75263,257.77753 C -29.59082,259.5267 -36.66459,265.52295 -40.11548,271.64789 C -42.9104,276.60857 -43.21308,277.98139 -43.20226,285.64789 C -43.18796,295.78051 -41.25024,300.28233 -34.32327,306.2761 C -31.69575,308.54965 -16.95608,316.72737 1.38394,326.08684 C 28.32666,339.83653 33.48752,342.84055 38.95772,347.95765 C 57.96701,365.73991 57.9088,397.06186 38.83101,416.13965 C 25.81372,429.15695 9.72987,433.12604 -13.893,429.15061 z M 139.5915,428.23447 L 136.78574,425.82106 L 136.78574,333.64789 L 136.78574,241.47472 L 139.5915,239.06131 C 143.70894,235.51964 149.52664,235.73495 153.36266,239.57097 L 156.28574,242.49404 L 156.28574,333.64789 L 156.28574,424.80174 L 153.36266,427.72481 C 149.52664,431.56083 143.70894,431.77614 139.5915,428.23447 z M 277.55544,429.59383 C 262.50414,426.62319 247.80576,413.67739 242.16707,398.42505 C 239.86191,392.18974 239.84422,391.78457 239.51229,337.64789 C 239.14819,278.2635 239.40759,274.38303 244.44807,263.81296 C 248.05756,256.24374 257.53057,246.31264 264.8606,242.41334 C 274.89925,237.07317 278.6768,236.64789 316.07276,236.64789 L 350.43959,236.64789 L 353.36266,239.57097 C 357.19788,243.40618 357.41382,249.22409 353.8738,253.34213 L 351.46187,256.14789 L 315.6238,256.64789 C 284.03267,257.08864 279.36638,257.3569 276.24694,258.91161 C 270.39872,261.82633 265.88679,266.13295 262.75212,271.79234 L 259.78574,277.14789 L 259.78574,333.64789 C 259.78574,389.9643 259.7929,390.16127 261.98794,394.26436 C 265.37195,400.58993 268.62796,403.96726 274.45302,407.19394 L 279.78574,410.14789 L 307.78574,410.14789 L 335.78574,410.14789 L 335.78574,372.14789 L 335.78574,334.14789 L 323.94541,333.64789 C 312.35471,333.15843 312.05196,333.08605 309.58598,330.21491 C 307.47554,327.75773 307.14787,326.56343 307.5661,322.8529 C 307.86713,320.18217 308.91409,317.5751 310.20331,316.28588 C 312.24069,314.2485 313.2563,314.14789 331.78574,314.14789 C 350.68565,314.14789 351.29397,314.21166 353.50796,316.42508 L 355.78574,318.70228 L 356.06142,371.72633 L 356.3371,424.75038 L 353.38834,427.69913 L 350.43959,430.64789 L 316.11266,430.53832 C 297.23286,430.47806 279.88211,430.05304 277.55544,429.59383 z"
           style="fill:#19150a" />
      </g>
    </g>
  </g>
</svg>
