<?xml version="1.0" encoding="UTF-8" standalone="no"?>
<!-- Created with Inkscape (http://www.inkscape.org/) -->

<svg
   xmlns:dc="http://purl.org/dc/elements/1.1/"
   xmlns:cc="http://creativecommons.org/ns#"
   xmlns:rdf="http://www.w3.org/1999/02/22-rdf-syntax-ns#"
   xmlns:svg="http://www.w3.org/2000/svg"
   xmlns="http://www.w3.org/2000/svg"
   xmlns:sodipodi="http://sodipodi.sourceforge.net/DTD/sodipodi-0.dtd"
   xmlns:inkscape="http://www.inkscape.org/namespaces/inkscape"
   width="331.39413"
   height="95.801338"
   id="svg4227"
   version="1.1"
   inkscape:version="0.48.1 r9760"
   sodipodi:docname="Nuevo documento 6">
  <defs
     id="defs4229">
    <filter
       id="filter4681"
       inkscape:label="Drop shadow"
       width="1.5"
       height="1.5"
       x="-0.25"
       y="-0.25"
       color-interpolation-filters="sRGB">
      <feGaussianBlur
         id="feGaussianBlur4683"
         in="SourceAlpha"
         stdDeviation="2.000000"
         result="blur" />
      <feColorMatrix
         id="feColorMatrix4685"
         result="bluralpha"
         type="matrix"
         values="1 0 0 0 0 0 1 0 0 0 0 0 1 0 0 0 0 0 1.000000 0 " />
      <feOffset
         id="feOffset4687"
         in="bluralpha"
         dx="3.500000"
         dy="3.500000"
         result="offsetBlur" />
      <feMerge
         id="feMerge4689">
        <feMergeNode
           id="feMergeNode4691"
           in="offsetBlur" />
        <feMergeNode
           id="feMergeNode4693"
           in="SourceGraphic" />
      </feMerge>
    </filter>
  </defs>
  <sodipodi:namedview
     id="base"
     pagecolor="#ffffff"
     bordercolor="#666666"
     borderopacity="1.0"
     inkscape:pageopacity="0.0"
     inkscape:pageshadow="2"
     inkscape:zoom="1.4"
     inkscape:cx="222.49118"
     inkscape:cy="-98.455334"
     inkscape:document-units="px"
     inkscape:current-layer="layer1"
     showgrid="false"
     fit-margin-top="5"
     fit-margin-left="5"
     fit-margin-right="5"
     fit-margin-bottom="5"
     inkscape:window-width="1366"
     inkscape:window-height="716"
     inkscape:window-x="0"
     inkscape:window-y="25"
     inkscape:window-maximized="1" />
  <metadata
     id="metadata4232">
    <rdf:RDF>
      <cc:Work
         rdf:about="">
        <dc:format>image/svg+xml</dc:format>
        <dc:type
           rdf:resource="http://purl.org/dc/dcmitype/StillImage" />
        <dc:title></dc:title>
      </cc:Work>
    </rdf:RDF>
  </metadata>
  <g
     inkscape:label="Capa 1"
     inkscape:groupmode="layer"
     id="layer1"
     transform="translate(-17.08437,-4.0388819)">
    <g
       transform="matrix(0.87813839,0,0,0.87813839,-94.501301,8.2331796)"
       id="g3362">
      <g
         transform="translate(-19.784371,0)"
         id="g6010">
        <g
           id="g5993"
           transform="matrix(1.17734,0,0,1.17734,-27.372116,-32.787778)">
          <g
             transform="matrix(0.64238242,0,0,0.64238242,152.81997,28.62834)"
             id="OSGeo-3">
            <path
               inkscape:connector-curvature="0"
               id="path5295"
               d="m 107.322,56.194 c -3.566,4.801 -5.377,10.846 -5.377,17.968 0,7.564 1.772,13.854 5.276,18.699 3.521,4.875 8.465,7.348 14.698,7.348 6.825,0 12.143,-2.34 15.812,-6.949 3.649,-4.596 5.503,-11.021 5.503,-19.098 0,-7.885 -1.849,-14.122 -5.492,-18.546 -3.653,-4.443 -8.977,-6.696 -15.823,-6.696 -6.098,0 -11.005,2.45 -14.597,7.274 m 5.475,31.931 c -2.177,-3.713 -3.281,-8.412 -3.281,-13.963 0,-5.77 1.076,-10.387 3.192,-13.718 2.096,-3.295 5.197,-4.966 9.214,-4.966 9.245,0 13.737,6.111 13.737,18.685 0,6.166 -1.191,11.018 -3.538,14.416 -2.325,3.365 -5.758,5.07 -10.199,5.07 -3.904,-0.001 -6.972,-1.858 -9.125,-5.524"
               style="fill:#49a942" />
            <path
               inkscape:connector-curvature="0"
               id="path5297"
               d="m 151.834,52.611 c -2.643,2.452 -3.981,5.586 -3.981,9.312 0,3.047 0.684,5.702 2.034,7.878 1.349,2.18 3.746,4.084 7.132,5.66 l 3.946,1.847 c 3.482,1.642 5.682,3.168 6.532,4.536 0.85,1.369 1.28,2.873 1.28,4.467 0,2.123 -0.768,3.895 -2.286,5.262 -1.521,1.376 -3.571,2.076 -6.103,2.076 -1.434,0 -3.084,-0.303 -4.91,-0.909 -1.825,-0.6 -3.366,-1.358 -4.583,-2.257 l -0.286,-0.211 -2.647,6.689 0.18,0.119 c 3.111,2.076 6.912,3.129 11.299,3.129 4.999,0 9.047,-1.319 12.041,-3.922 3.006,-2.609 4.532,-5.833 4.532,-9.584 0,-3.428 -0.695,-6.295 -2.069,-8.53 -1.375,-2.234 -3.789,-4.179 -7.174,-5.778 l -4.022,-1.91 c -2.562,-1.238 -4.279,-2.205 -5.093,-2.882 -0.803,-0.661 -1.439,-1.497 -1.888,-2.481 -0.452,-0.991 -0.681,-2.104 -0.681,-3.311 0,-1.949 0.635,-3.567 1.886,-4.805 1.25,-1.24 3.003,-1.867 5.205,-1.867 1.528,0 3.22,0.303 5.023,0.895 1.801,0.596 3.155,1.218 4.029,1.849 l 0.295,0.22 2.159,-6.354 -0.141,-0.119 c -2.168,-1.795 -6.043,-2.708 -11.522,-2.708 -4.122,-0.002 -7.552,1.24 -10.187,3.689"
               style="fill:#49a942" />
            <path
               inkscape:connector-curvature="0"
               id="path5299"
               d="m 187.21,56.094 c -4.314,4.751 -6.504,11.029 -6.504,18.652 0,7.646 1.996,13.864 5.934,18.482 3.949,4.63 9.403,6.98 16.213,6.98 3.016,0 6.171,-0.477 9.371,-1.404 3.212,-0.932 5.754,-2.188 7.56,-3.723 l 0.098,-0.079 v -21.77 h -14.013 v 6.219 h 6.778 v 11.115 c -2.135,2.039 -4.954,3.082 -8.389,3.082 -4.91,0 -8.837,-1.713 -11.68,-5.099 -2.853,-3.396 -4.296,-7.95 -4.296,-13.532 0,-5.875 1.472,-10.656 4.379,-14.208 2.895,-3.539 6.901,-5.332 11.916,-5.332 3.152,0 6.425,1.243 9.726,3.688 l 0.26,0.192 3.013,-5.995 -0.16,-0.138 c -3.247,-2.854 -7.5,-4.305 -12.645,-4.305 -7.33,0.001 -13.24,2.417 -17.561,7.175"
               style="fill:#49a942" />
            <path
               inkscape:connector-curvature="0"
               id="path5301"
               d="m 231.083,67.17 c -3.629,3.611 -5.471,8.46 -5.471,14.418 0,5.744 1.796,10.378 5.334,13.787 3.184,3.092 7.104,4.661 11.661,4.661 3.143,0 6.028,-0.481 8.593,-1.435 2.052,-0.729 3.606,-1.61 4.612,-2.627 l 0.146,-0.148 -2.948,-5.039 -0.243,0.22 c -2.367,2.09 -5.366,3.151 -8.918,3.151 -3.104,0 -5.671,-0.967 -7.638,-2.871 -2.18,-2.141 -3.293,-5.246 -3.343,-9.209 h 25.761 l 0.054,-0.199 c 0.34,-1.203 0.512,-2.535 0.512,-3.959 0,-4.631 -1.443,-8.404 -4.299,-11.213 -2.94,-2.92 -7.048,-4.402 -12.207,-4.402 -4.451,0 -8.352,1.639 -11.606,4.865 m 4.96,3.685 c 1.854,-1.771 4.188,-2.67 6.932,-2.67 2.938,0 5.293,0.914 6.991,2.722 1.487,1.595 2.227,3.617 2.286,5.968 h -19.155 c 0.292,-2.367 1.248,-4.41 2.946,-6.02"
               style="fill:#49a942" />
            <path
               inkscape:connector-curvature="0"
               id="path5303"
               d="m 268.197,67.503 c -3.011,3.439 -4.538,8.007 -4.538,13.585 0,5.75 1.463,10.396 4.352,13.801 2.896,3.415 6.986,5.147 12.161,5.147 5.06,0 9.113,-1.714 12.058,-5.097 2.933,-3.373 4.418,-8.031 4.418,-13.852 0,-5.84 -1.452,-10.479 -4.318,-13.785 -2.877,-3.316 -6.965,-4.998 -12.157,-4.998 -4.927,10e-4 -8.959,1.75 -11.976,5.199 m 2.698,13.585 c 0,-4.08 0.856,-7.32 2.542,-9.63 1.67,-2.282 3.934,-3.438 6.734,-3.438 6.217,0 9.242,4.271 9.242,13.068 0,4.103 -0.834,7.377 -2.481,9.736 -1.623,2.324 -3.897,3.5 -6.761,3.5 -6.243,0 -9.276,-4.328 -9.276,-13.236"
               style="fill:#49a942" />
          </g>
          <g
             transform="matrix(0.64238242,0,0,0.64238242,152.81997,28.62834)"
             id="Compass-7">
            <path
               inkscape:connector-curvature="0"
               id="path5306"
               d="M 54.232,117.368 C 28.032,116.453 7.532,94.47 8.447,68.269 9.361,42.065 31.345,21.569 57.546,22.484 c 18.112,0.633 33.497,11.335 40.969,26.537 1.15,0.036 2.302,0.039 3.461,-0.175 C 94.225,31.979 77.475,20 57.657,19.308 29.667,18.33 6.187,40.227 5.209,68.219 c -0.976,27.986 20.918,51.468 48.909,52.446 7.593,0.264 14.851,-1.166 21.421,-3.934 -0.317,-0.983 -0.514,-2.108 -0.841,-3.215 -6.259,2.707 -13.198,4.105 -20.466,3.852 z"
               clip-rule="evenodd"
               style="fill:#49a942;fill-rule:evenodd" />
            <g
               id="g5308">
              <circle
                 id="circle5310"
                 r="31.707001"
                 cy="70.192001"
                 cx="55.669998"
                 sodipodi:cx="55.669998"
                 sodipodi:cy="70.192001"
                 sodipodi:rx="31.707001"
                 sodipodi:ry="31.707001"
                 style="fill:#a0ce67"
                 d="m 87.376999,70.192001 c 0,17.511293 -14.195708,31.706999 -31.707001,31.706999 -17.511293,0 -31.707001,-14.195706 -31.707001,-31.706999 0,-17.511293 14.195708,-31.707 31.707001,-31.707 17.511293,0 31.707001,14.195707 31.707001,31.707 z" />
            </g>
            <polygon
               id="polygon5312"
               points="78.884,121.407 72.411,75.859 107.593,46.548 61.494,53.061 26.327,4.407 38.873,63.876 3.379,93.238 49.515,86.588 "
               stroke-miterlimit="6"
               style="fill:#ffffff;stroke:#a0ce67;stroke-width:2;stroke-miterlimit:6" />
            <g
               id="g5314">
              <polygon
                 id="polygon5316"
                 points="46.326,49.022 55.255,65.431 60.669,55.451 58.606,66.663 76.371,60.624 60.143,69.772 69.983,74.904 59.123,73.172 65.45,91.554 55.707,74.987 50.335,84.403 51.976,73.643 34.388,79.515 50.561,70.082 40.388,64.431 52.106,66.806 "
                 clip-rule="evenodd"
                 style="fill:#49a942;fill-rule:evenodd" />
            </g>
            <path
               inkscape:connector-curvature="0"
               id="path5318"
               d="M 47.934,90.854"
               style="fill:none" />
            <path
               inkscape:connector-curvature="0"
               id="path5320"
               d="M 60.669,55.451"
               style="fill:none" />
          </g>
        </g>
        <path
           inkscape:connector-curvature="0"
           style="fill:#1166ad;fill-opacity:1;stroke:#4c4c4c;stroke-width:0.33570424;stroke-linecap:round;stroke-linejoin:round;stroke-miterlimit:4;stroke-opacity:1;stroke-dasharray:none"
           d="m 176.40105,73.809246 c -2.16078,0.10821 -4.09946,1.06442 -5.47449,2.53722 -1.45614,-1.50059 -3.50612,-2.43879 -5.77639,-2.43879 -4.4184,0 -8.00041,3.5418 -8.00041,7.90692 0,2.36905 1.06606,4.48978 2.73725,5.93839 0.0609,0.0528 0.11863,0.11308 0.18114,0.16405 l 11.17036,10.553492 11.06975,-11.012822 -0.0101,-0.0109 c 1.54404,-1.44094 2.51584,-3.47753 2.51584,-5.74154 0,-4.36512 -3.582,-7.89598 -8.0004,-7.89598 -0.13807,0 -0.27623,-0.007 -0.41259,0 z"
           id="path4067-9-0-4" />
      </g>
      <text
         id="text6029"
         y="83.470703"
         x="361.57974"
         style="font-size:12px;font-style:normal;font-weight:normal;text-align:start;text-anchor:start;fill:#1166ad;fill-opacity:1;stroke:none;font-family:Sans"
         xml:space="preserve"><tspan
           style="font-size:72px;font-style:italic;font-variant:normal;font-weight:bold;font-stretch:normal;text-align:start;line-height:125%;writing-mode:lr-tb;text-anchor:start;fill:#1166ad;fill-opacity:1;font-family:Comic Sans MS;-inkscape-font-specification:Comic Sans MS Bold Italic"
           y="83.470703"
           x="361.57974"
           id="tspan6031"
           sodipodi:role="line">Live</tspan></text>
    </g>
  </g>
</svg>
